<svg width="150" height="37" fill="none" xmlns="http://www.w3.org/2000/svg"><g clip-path="url(#clip0)" fill-rule="evenodd" clip-rule="evenodd" fill="#000"><path d="M42.48 25.36c.264-.132.528.132.66.396 0 0 .396 1.583.923 1.583 0 .264 0 .528-.264.66-.923.395-2.902.923-5.013.923-6.332 0-10.818-4.485-10.818-10.554 0-6.464 4.75-10.554 11.214-10.554.924 0 2.77.264 3.958.528.132.132.396.395.396.66v4.353c0 .264-.264.528-.528.528h-1.187c-.264 0-.396-.132-.528-.396l-.396-1.715c-.264-.924-1.055-1.32-2.638-1.32-4.486 0-5.937 3.563-5.937 7.256 0 4.222 1.979 8.18 6.992 8.18 1.055.132 2.507-.132 3.166-.528zm10.027.924c1.583 0 2.638-1.188 2.638-2.375l-.132-2.375c0-.132 0-.264-.264-.264-3.43 0-4.617 1.188-4.617 2.903-.132 1.187.924 2.11 2.375 2.11zm8.443.264c0-.264-.264-.396-.528-.396-.264.132-.527.132-.791.132-.66 0-.792-.396-.792-.924v-6.992c0-4.09-2.506-5.673-6.2-5.673-1.847 0-3.826.396-5.146.924-.263.132-.395.396-.263.66l.395 1.846c.132.396.396.396.66.264.924-.527 2.11-.791 3.298-.791 1.979 0 3.43.791 3.43 2.506v.528c0 .264-.132.528-.264.528-4.617 0-8.443 1.45-8.443 5.672 0 2.375 1.715 4.222 4.486 4.222 2.506 0 3.694-1.055 4.617-2.11h.132c.132 1.187.792 2.11 2.507 2.11.923 0 2.506-.264 2.77-.528.264-.132.264-.264.264-.527l-.132-1.451zM71.108 15.73c-1.583 0-2.77.923-2.77 2.374v6.069c0 1.32.923 2.11 2.506 2.11 2.903 0 3.958-2.902 3.958-5.54-.132-2.507-1.187-5.013-3.694-5.013zm-.396 18.733c.264 0 .528-.264.528-.528v-.791c0-.264-.132-.528-.396-.528l-1.847-.264c-.263-.132-.66-.396-.66-.923V28.13h.66c.396 0 .66.131 1.056.131 5.805 0 8.707-3.561 8.707-8.707 0-4.221-2.507-7.124-6.069-7.124-2.374 0-3.694 1.188-4.749 2.375h-.132l-.264-1.451c0-.264-.264-.66-.66-.528l-4.88.528c-.264 0-.528.264-.528.528v.791c0 .264.131.396.395.528l1.452.264c.527.132.66.66.66.923v15.436c0 .66-.265.923-.66.923l-1.188.396c-.264.132-.395.264-.395.528v.791c0 .264.263.528.527.528l8.443-.528zm19.79-8.707c.395 0 .659.132.659.396l.528 1.583c0 .396 0 .527-.264.66-.924.527-2.639.791-3.826.791-3.034 0-5.145-1.715-5.145-4.75v-7.915c0-.264-.132-.396-.396-.396h-2.11c-.265 0-.265-.132-.265-.396l.132-1.714s.132-.264.264-.264h1.715c.396 0 .396-.264.396-.528v-1.979c0-.396.132-.66.528-.791l2.902-.924c.396-.132.528.132.528.528v3.166c0 .132.132.396.396.396h3.825c.132 0 .264.132.264.264v1.847s-.132.263-.264.263h-3.825c-.264 0-.528.132-.528.396v7.124c0 1.715.923 2.77 2.638 2.77.528-.131 1.188-.263 1.847-.527zm11.609-8.575c0 2.11-2.111 2.77-4.09 2.77-.528 0-.923 0-1.187-.132-.264 0-.396-.132-.396-.395-.132-1.98.924-4.618 3.298-4.618 1.451 0 2.375 1.056 2.375 2.375zm2.638 8.047c.264-.264.528 0 .66.264l.132 1.583c.132.264 0 .528-.264.66-1.187.791-3.034 1.187-4.749 1.187-5.277 0-8.048-3.298-8.048-8.18 0-4.617 3.562-8.047 7.916-8.047 2.902 0 5.805 1.583 5.805 4.618 0 3.562-3.694 4.88-6.86 4.88H97.23c-.264 0-.396.133-.396.397.264 2.374 2.638 3.826 4.617 3.826 1.451 0 2.507-.528 3.298-.924v-.264zm11.874 3.43c.264 0 .527-.264.527-.527v-.792c0-.264-.131-.396-.395-.528l-1.847-.264c-.264 0-.66-.395-.66-.923v-6.86c0-1.583 1.319-2.507 2.771-2.507.659 0 1.319.132 1.846.264.264.132.66-.132.66-.264l.66-2.77c.132-.396 0-.66-.264-.66-.396-.264-.924-.264-1.319-.264-1.979 0-3.299 1.32-4.486 2.903h-.132l-.264-2.111c0-.396-.263-.66-.527-.66l-4.882.66c-.263 0-.527.264-.527.528v.791c0 .264.132.396.395.528l1.452.264c.527.132.659.66.659.923v9.499c0 .66-.264.923-.659.923l-1.32.264c-.263.132-.395.264-.395.528v.791c0 .264.263.528.527.528h8.18v-.264zm13.852-.527c0 .263-.264.527-.528.527h-8.179c-.264 0-.528-.264-.528-.527v-.792c0-.264.132-.396.396-.528l1.319-.264c.396 0 .66-.395.66-.923v-9.499c0-.396-.132-.791-.66-.923l-1.451-.264c-.264-.132-.396-.264-.396-.528v-.791c0-.264.264-.528.528-.528l4.881-.66c.264 0 .528.264.528.66l.264 2.375h.132c1.187-1.583 2.638-2.903 4.485-2.903.396 0 .924 0 1.319.264.264 0 .396.264.264.66l-.659 2.77c0 .132-.396.396-.66.264-.528-.132-1.187-.264-1.847-.264-1.451 0-2.77.924-2.77 2.507v6.86c0 .66.395.924.659.924l1.847.263c.264.132.396.264.396.528v.792zm13.588-4.222c0 1.187-.923 2.375-2.638 2.375-1.319 0-2.507-.924-2.507-2.243 0-1.715 1.188-2.902 4.618-2.902.264 0 .264.131.264.263l.263 2.507zm5.277 2.243c.264 0 .528.132.528.395l.264 1.584c0 .263 0 .395-.264.527-.396.264-1.847.528-2.77.528-1.583 0-2.375-.792-2.507-2.11h-.132c-.923.923-2.243 2.11-4.617 2.11-2.771 0-4.486-1.847-4.486-4.222 0-4.221 3.826-5.672 8.444-5.672.131 0 .263-.264.263-.528v-.66c0-1.847-1.451-2.506-3.43-2.506-1.187 0-2.506.395-3.298.791-.264.132-.528.132-.66-.264l-.395-1.847c-.132-.264 0-.527.264-.66 1.319-.659 3.298-.923 5.145-.923 3.694 0 6.2 1.583 6.2 5.673v6.992c0 .66.264.924.924.924 0 0 .264 0 .527-.132zM6.069 17.445H.792c-.132 0-.264-.132-.132-.132-.132 0-.132-.132-.132-.264l.132-.66c.132-.264.132-.396.132-.396 0-.132.131-.263.131-.395 0-.264.132-.528.264-.792C3.298 7.022 10.158.954 10.817.294c.397-.132.529-.132.793 0C18.864 6.76 21.636 13.223 21.9 16.785v.396c0 .132-.132.396-.396.396h-5.409c-.132 0-.396 0-.396-.264a4.766 4.766 0 00-4.617-3.694c-2.243 0-4.09 1.583-4.618 3.694-.132 0-.132.132-.395.132zm9.762 2.11h5.41s.263 0 0 .132c.131 0 .131.132.131.264l-.132.66c-.132.132-.132.264-.132.264 0 .132-.132.264-.132.395 0 .264-.132.528-.264.792-2.242 7.784-9.102 13.984-9.762 14.644-.264.132-.396.132-.66 0C3.166 30.24.264 23.777 0 20.216v-.397c0-.132.132-.395.396-.395h5.409c.132 0 .396 0 .396.263a4.766 4.766 0 004.617 3.694c2.243 0 4.09-1.583 4.617-3.694 0 0 .132-.132.396-.132z"/></g><defs><clipPath id="clip0"><path fill="#fff" d="M0 0h150v37H0z"/></clipPath></defs></svg>