<svg width="36" height="36" fill="none" xmlns="http://www.w3.org/2000/svg"><path d="M18.23.257c1.164 0 2.457 0 3.62.386l-3.62 7.071C12.8 7.33 8.016 11.7 7.628 17.357c-.258 5.658 3.88 10.543 9.439 10.8h1.163c2.457 0 4.784-.9 6.594-2.442l3.879 6.814A17.735 17.735 0 0118.101 36C8.533 36.257.388 28.93 0 18.9-.259 9 6.982.643 16.679.257h1.551z" fill="#1D1D1B"/><path d="M22.11 15.557l-4.526 7.714h8.792l4.137 7.458 4.525-7.458-4.525-7.714H22.11zm1.163-2.828c0-1.286.258-2.443.905-3.472.646-.9 1.81-1.928 2.715-2.443l.646-.385c1.164-.643 1.552-.9 1.552-1.543 0-.643-.905-1.286-1.552-1.286-1.163 0-2.198.643-2.715 1.929l-1.551-1.415c.258-.642.905-1.285 1.551-1.928.905-.643 1.81-.643 2.715-.643.905 0 2.198.386 2.715.9.518.643 1.164 1.543 1.164 2.443 0 1.543-.905 2.828-2.715 3.471L27.798 9c-.905.643-1.552.9-1.81 1.929h5.43v2.185c0-.128-8.145-.385-8.145-.385z" fill="#1D1D1B"/></svg>