<svg width="112" height="25" fill="none" xmlns="http://www.w3.org/2000/svg"><g clip-path="url(#clip0)" fill="#000"><path d="M0 12.313v12.303h4.88v-10.03l1.87.06 1.87.058 2.87 4.941 2.85 4.941 2.81.03c1.52 0 2.78-.04 2.78-.099 0-.059-1.3-2.342-2.87-5.069-1.59-2.726-2.91-5-2.95-5.069-.04-.078.44-.373 1.09-.698 1.49-.729 2.99-2.097 3.63-3.337.89-1.762.94-4.862.08-6.506-.89-1.703-2.97-3.14-5.26-3.622C13 .078 10.13-.01 6.29-.01H0v12.323zm12.95-7.697c1.12.502 1.69 1.397 1.69 2.697 0 1.2-.51 2.126-1.46 2.637-.57.296-1.28.374-4.47.424l-3.82.078v-6.26H8.5c3.11.02 3.72.08 4.45.424zm64.7 7.904v12.106h4.68V.413h-4.68V12.52zm25.85-.769c.06 9.331.06 9.37.53 10.306.53 1.063 1.79 2.263 2.81 2.677.44.177 1.46.275 2.92.275H112v-3.996h-1.3c-.99 0-1.4-.098-1.83-.423l-.53-.404v-9.379H112v-3.8h-3.66V2.401h-4.9l.06 9.35z"/><path d="M26.18 6.988c-1.65.541-2.77 1.23-3.96 2.46-1.22 1.3-1.79 2.304-2.2 4.006-1.09 4.567.91 8.937 4.98 10.837 1.26.6 1.42.63 3.96.63 2.27 0 2.81-.06 3.82-.473 1.42-.56 3.32-2.204 4.07-3.563l.53-.974-1.63-.935c-.89-.522-1.7-.935-1.79-.935-.08 0-.43.404-.79.876-.81 1.161-1.91 1.86-3.25 2.126-1.19.226-2.06.098-3.09-.423-1.22-.6-2.44-2.175-2.44-3.18 0-.403.08-.403 6.71-.403h6.71v-1.673c0-3.839-1.8-6.673-5.18-8.14-1.45-.67-4.81-.768-6.45-.236zm5.49 3.907c.53.364 1.04.935 1.36 1.605l.53 1.023-4.51.06c-2.48.029-4.55 0-4.61-.06-.28-.275 1.18-2.067 2.2-2.667 1.04-.63 1.22-.66 2.67-.6 1.28.059 1.65.137 2.36.64zM63.04 6.92c-2.62.727-5.04 2.627-6.03 4.763-.71 1.565-1.02 3.966-.71 5.777.79 4.735 4.34 7.57 9.55 7.57 3.05 0 5.08-.729 7.05-2.461 1.14-1.024 1.91-2.303 2.41-4.026.43-1.466.33-4.734-.18-6.132-.84-2.264-3.05-4.36-5.55-5.236-1.55-.561-4.97-.689-6.54-.256zm4.95 4.468c2.85 1.24 3.79 4.98 1.87 7.46-1.36 1.762-4.23 2.422-6.16 1.427-1.05-.56-2.2-1.8-2.52-2.765-.41-1.201-.17-3.337.47-4.272 1.44-2.146 3.94-2.864 6.34-1.85zM37.67 7.293c.06.138 1.69 4.105 3.62 8.8l3.52 8.543 2.21-.06 2.21-.058 3.43-8.308c1.89-4.566 3.49-8.503 3.56-8.77l.13-.462-2.48.06-2.5.058-2.16 5.64c-1.18 3.1-2.21 5.58-2.27 5.502-.08-.079-1.08-2.638-2.24-5.699l-2.11-5.541h-2.52c-2.03.02-2.49.079-2.4.295zm47.09 5.187c0 3.08.1 5.974.23 6.644.44 2.44 1.77 4.124 4.03 5.177 1.3.6 1.45.63 4.09.63 2.58 0 2.82-.04 3.96-.561 2.26-1.034 3.7-2.864 4.14-5.237.13-.659.23-3.563.23-6.643V7.027h-4.65l-.06 5.443c-.06 5.226-.08 5.502-.53 6.3-.65 1.2-1.75 1.722-3.39 1.623-1.46-.079-2.3-.57-2.87-1.703-.34-.679-.38-1.358-.44-6.23l-.06-5.443h-4.65v5.463h-.03z"/></g><defs><clipPath id="clip0"><path fill="#fff" d="M0 0h112v25H0z"/></clipPath></defs></svg>